<mxfile host="app.diagrams.net" modified="2023-12-23T15:35:47.301Z" agent="Mozilla/5.0 (Windows NT 10.0; Win64; x64) AppleWebKit/537.36 (KHTML, like Gecko) Chrome/120.0.0.0 Safari/537.36" etag="1N7vGj1tRwAOgvPLv1qk" version="22.1.11" type="device">
  <diagram name="第 1 页" id="iC6hft8t30F31RiOe8XB">
    <mxGraphModel dx="1050" dy="565" grid="1" gridSize="10" guides="1" tooltips="1" connect="1" arrows="1" fold="1" page="1" pageScale="1" pageWidth="827" pageHeight="1169" math="0" shadow="0">
      <root>
        <mxCell id="0" />
        <mxCell id="1" parent="0" />
        <mxCell id="b5xYHFBNqk1q1fju2K7R-1" value="" style="shape=waypoint;sketch=0;fillStyle=solid;size=6;pointerEvents=1;points=[];fillColor=none;resizable=0;rotatable=0;perimeter=centerPerimeter;snapToPoint=1;strokeWidth=20;" vertex="1" parent="1">
          <mxGeometry x="394" y="80" width="20" height="20" as="geometry" />
        </mxCell>
        <mxCell id="b5xYHFBNqk1q1fju2K7R-2" value="" style="endArrow=classic;html=1;rounded=0;" edge="1" parent="1" source="b5xYHFBNqk1q1fju2K7R-1">
          <mxGeometry width="50" height="50" relative="1" as="geometry">
            <mxPoint x="400" y="110" as="sourcePoint" />
            <mxPoint x="404" y="160" as="targetPoint" />
          </mxGeometry>
        </mxCell>
        <mxCell id="b5xYHFBNqk1q1fju2K7R-5" style="edgeStyle=orthogonalEdgeStyle;rounded=0;orthogonalLoop=1;jettySize=auto;html=1;exitX=0.5;exitY=1;exitDx=0;exitDy=0;" edge="1" parent="1" source="b5xYHFBNqk1q1fju2K7R-10">
          <mxGeometry relative="1" as="geometry">
            <mxPoint x="407" y="190" as="sourcePoint" />
            <mxPoint x="407" y="190" as="targetPoint" />
          </mxGeometry>
        </mxCell>
        <mxCell id="b5xYHFBNqk1q1fju2K7R-11" value="" style="edgeStyle=orthogonalEdgeStyle;rounded=0;orthogonalLoop=1;jettySize=auto;html=1;exitX=0.5;exitY=1;exitDx=0;exitDy=0;" edge="1" parent="1" target="b5xYHFBNqk1q1fju2K7R-10">
          <mxGeometry relative="1" as="geometry">
            <mxPoint x="407" y="190" as="sourcePoint" />
            <mxPoint x="407" y="190" as="targetPoint" />
          </mxGeometry>
        </mxCell>
        <mxCell id="b5xYHFBNqk1q1fju2K7R-13" style="edgeStyle=orthogonalEdgeStyle;rounded=0;orthogonalLoop=1;jettySize=auto;html=1;" edge="1" parent="1" source="b5xYHFBNqk1q1fju2K7R-10">
          <mxGeometry relative="1" as="geometry">
            <mxPoint x="409.5" y="280" as="targetPoint" />
          </mxGeometry>
        </mxCell>
        <mxCell id="b5xYHFBNqk1q1fju2K7R-10" value="管理員登陸" style="strokeWidth=2;html=1;shape=mxgraph.flowchart.terminator;whiteSpace=wrap;" vertex="1" parent="1">
          <mxGeometry x="340" y="150" width="139" height="50" as="geometry" />
        </mxCell>
        <mxCell id="b5xYHFBNqk1q1fju2K7R-14" value="帳戶密碼&lt;br&gt;是否正確" style="strokeWidth=2;html=1;shape=mxgraph.flowchart.decision;whiteSpace=wrap;" vertex="1" parent="1">
          <mxGeometry x="352.25" y="280" width="114.5" height="60" as="geometry" />
        </mxCell>
        <mxCell id="b5xYHFBNqk1q1fju2K7R-16" value="N" style="html=1;verticalAlign=bottom;labelBackgroundColor=none;endArrow=open;endFill=0;rounded=0;entryX=1;entryY=0.5;entryDx=0;entryDy=0;entryPerimeter=0;" edge="1" parent="1" target="b5xYHFBNqk1q1fju2K7R-10">
          <mxGeometry width="160" relative="1" as="geometry">
            <mxPoint x="466.75" y="309.5" as="sourcePoint" />
            <mxPoint x="500" y="180" as="targetPoint" />
            <Array as="points">
              <mxPoint x="640" y="310" />
              <mxPoint x="640" y="175" />
            </Array>
          </mxGeometry>
        </mxCell>
        <mxCell id="b5xYHFBNqk1q1fju2K7R-17" value="Y" style="html=1;verticalAlign=middle;labelBackgroundColor=none;endArrow=open;endFill=0;rounded=0;exitX=0.5;exitY=1;exitDx=0;exitDy=0;exitPerimeter=0;fontSize=10;" edge="1" parent="1" source="b5xYHFBNqk1q1fju2K7R-14">
          <mxGeometry width="160" relative="1" as="geometry">
            <mxPoint x="330" y="380" as="sourcePoint" />
            <mxPoint x="410" y="380" as="targetPoint" />
          </mxGeometry>
        </mxCell>
        <mxCell id="b5xYHFBNqk1q1fju2K7R-19" style="edgeStyle=orthogonalEdgeStyle;rounded=0;orthogonalLoop=1;jettySize=auto;html=1;" edge="1" parent="1" source="b5xYHFBNqk1q1fju2K7R-18">
          <mxGeometry relative="1" as="geometry">
            <mxPoint x="409.5" y="460" as="targetPoint" />
          </mxGeometry>
        </mxCell>
        <mxCell id="b5xYHFBNqk1q1fju2K7R-18" value="商品管理" style="strokeWidth=2;html=1;shape=mxgraph.flowchart.terminator;whiteSpace=wrap;" vertex="1" parent="1">
          <mxGeometry x="340" y="380" width="139" height="40" as="geometry" />
        </mxCell>
        <mxCell id="b5xYHFBNqk1q1fju2K7R-21" value="" style="html=1;points=[[0,0,0,0,5],[0,1,0,0,-5],[1,0,0,0,5],[1,1,0,0,-5]];perimeter=orthogonalPerimeter;outlineConnect=0;targetShapes=umlLifeline;portConstraint=eastwest;newEdgeStyle={&quot;curved&quot;:0,&quot;rounded&quot;:0};direction=south;labelBackgroundColor=none;noLabel=1;labelBorderColor=none;fillColor=#050505;strokeColor=#36393d;" vertex="1" parent="1">
          <mxGeometry x="339" y="460" width="149.5" height="25" as="geometry" />
        </mxCell>
        <mxCell id="b5xYHFBNqk1q1fju2K7R-22" value="" style="html=1;points=[[0,0,0,0,5],[0,1,0,0,-5],[1,0,0,0,5],[1,1,0,0,-5]];perimeter=orthogonalPerimeter;outlineConnect=0;targetShapes=umlLifeline;portConstraint=eastwest;newEdgeStyle={&quot;curved&quot;:0,&quot;rounded&quot;:0};direction=south;labelBackgroundColor=none;noLabel=1;labelBorderColor=none;fillColor=#050505;strokeColor=#36393d;" vertex="1" parent="1">
          <mxGeometry x="339" y="640" width="149.5" height="25" as="geometry" />
        </mxCell>
        <mxCell id="b5xYHFBNqk1q1fju2K7R-24" value="添加商品訊息" style="strokeWidth=2;html=1;shape=mxgraph.flowchart.terminator;whiteSpace=wrap;" vertex="1" parent="1">
          <mxGeometry x="140" y="540" width="109" height="30" as="geometry" />
        </mxCell>
        <mxCell id="b5xYHFBNqk1q1fju2K7R-25" value="查詢商品訊息" style="strokeWidth=2;html=1;shape=mxgraph.flowchart.terminator;whiteSpace=wrap;" vertex="1" parent="1">
          <mxGeometry x="290" y="540" width="109" height="30" as="geometry" />
        </mxCell>
        <mxCell id="b5xYHFBNqk1q1fju2K7R-26" value="刪除商品訊息" style="strokeWidth=2;html=1;shape=mxgraph.flowchart.terminator;whiteSpace=wrap;" vertex="1" parent="1">
          <mxGeometry x="440" y="540" width="109" height="30" as="geometry" />
        </mxCell>
        <mxCell id="b5xYHFBNqk1q1fju2K7R-27" value="商品維護" style="strokeWidth=2;html=1;shape=mxgraph.flowchart.terminator;whiteSpace=wrap;" vertex="1" parent="1">
          <mxGeometry x="580" y="540" width="109" height="30" as="geometry" />
        </mxCell>
        <mxCell id="b5xYHFBNqk1q1fju2K7R-28" value="" style="endArrow=classic;html=1;rounded=0;" edge="1" parent="1" source="b5xYHFBNqk1q1fju2K7R-21" target="b5xYHFBNqk1q1fju2K7R-24">
          <mxGeometry width="50" height="50" relative="1" as="geometry">
            <mxPoint x="249" y="497.5" as="sourcePoint" />
            <mxPoint x="299" y="447.5" as="targetPoint" />
            <Array as="points" />
          </mxGeometry>
        </mxCell>
        <mxCell id="b5xYHFBNqk1q1fju2K7R-29" value="" style="endArrow=classic;html=1;rounded=0;" edge="1" parent="1" source="b5xYHFBNqk1q1fju2K7R-21" target="b5xYHFBNqk1q1fju2K7R-25">
          <mxGeometry width="50" height="50" relative="1" as="geometry">
            <mxPoint x="345" y="495" as="sourcePoint" />
            <mxPoint x="244" y="550" as="targetPoint" />
            <Array as="points" />
          </mxGeometry>
        </mxCell>
        <mxCell id="b5xYHFBNqk1q1fju2K7R-30" value="" style="endArrow=classic;html=1;rounded=0;" edge="1" parent="1" source="b5xYHFBNqk1q1fju2K7R-21" target="b5xYHFBNqk1q1fju2K7R-26">
          <mxGeometry width="50" height="50" relative="1" as="geometry">
            <mxPoint x="500" y="500" as="sourcePoint" />
            <mxPoint x="399" y="555" as="targetPoint" />
            <Array as="points" />
          </mxGeometry>
        </mxCell>
        <mxCell id="b5xYHFBNqk1q1fju2K7R-31" value="" style="endArrow=classic;html=1;rounded=0;" edge="1" parent="1" source="b5xYHFBNqk1q1fju2K7R-21" target="b5xYHFBNqk1q1fju2K7R-27">
          <mxGeometry width="50" height="50" relative="1" as="geometry">
            <mxPoint x="365" y="515" as="sourcePoint" />
            <mxPoint x="264" y="570" as="targetPoint" />
            <Array as="points" />
          </mxGeometry>
        </mxCell>
        <mxCell id="b5xYHFBNqk1q1fju2K7R-32" value="" style="endArrow=classic;html=1;rounded=0;" edge="1" parent="1" source="b5xYHFBNqk1q1fju2K7R-24" target="b5xYHFBNqk1q1fju2K7R-22">
          <mxGeometry width="50" height="50" relative="1" as="geometry">
            <mxPoint x="220" y="650" as="sourcePoint" />
            <mxPoint x="220" y="655" as="targetPoint" />
            <Array as="points" />
          </mxGeometry>
        </mxCell>
        <mxCell id="b5xYHFBNqk1q1fju2K7R-33" value="" style="endArrow=classic;html=1;rounded=0;" edge="1" parent="1" source="b5xYHFBNqk1q1fju2K7R-25" target="b5xYHFBNqk1q1fju2K7R-22">
          <mxGeometry width="50" height="50" relative="1" as="geometry">
            <mxPoint x="385" y="535" as="sourcePoint" />
            <mxPoint x="284" y="590" as="targetPoint" />
            <Array as="points" />
          </mxGeometry>
        </mxCell>
        <mxCell id="b5xYHFBNqk1q1fju2K7R-34" value="" style="endArrow=classic;html=1;rounded=0;" edge="1" parent="1" source="b5xYHFBNqk1q1fju2K7R-26" target="b5xYHFBNqk1q1fju2K7R-22">
          <mxGeometry width="50" height="50" relative="1" as="geometry">
            <mxPoint x="395" y="545" as="sourcePoint" />
            <mxPoint x="294" y="600" as="targetPoint" />
            <Array as="points" />
          </mxGeometry>
        </mxCell>
        <mxCell id="b5xYHFBNqk1q1fju2K7R-35" value="" style="endArrow=classic;html=1;rounded=0;" edge="1" parent="1" source="b5xYHFBNqk1q1fju2K7R-27" target="b5xYHFBNqk1q1fju2K7R-22">
          <mxGeometry width="50" height="50" relative="1" as="geometry">
            <mxPoint x="405" y="555" as="sourcePoint" />
            <mxPoint x="304" y="610" as="targetPoint" />
            <Array as="points" />
          </mxGeometry>
        </mxCell>
        <mxCell id="b5xYHFBNqk1q1fju2K7R-36" value="" style="endArrow=classic;html=1;rounded=0;" edge="1" parent="1" source="b5xYHFBNqk1q1fju2K7R-22">
          <mxGeometry width="50" height="50" relative="1" as="geometry">
            <mxPoint x="415" y="565" as="sourcePoint" />
            <mxPoint x="415" y="730" as="targetPoint" />
            <Array as="points" />
          </mxGeometry>
        </mxCell>
        <mxCell id="b5xYHFBNqk1q1fju2K7R-38" value="" style="ellipse;html=1;shape=endState;fillColor=strokeColor;" vertex="1" parent="1">
          <mxGeometry x="393.25" y="730" width="41" height="40" as="geometry" />
        </mxCell>
      </root>
    </mxGraphModel>
  </diagram>
</mxfile>
